<svg width="213" height="93" viewBox="0 0 213 93" xmlns="http://www.w3.org/2000/svg"><title>logo2</title><g fill="none"><path fill="#FFF" d="M.5.9h120.2v36.8H.5z"/><path d="M23.1 11.1s.1 0 .1.1v.1L20 16.6c-.1.1-.2.1-.3 0l-1.6-2.7c-.1-.1-.1-.2 0-.3l1.3-2.4c0-.1.1-.1.2-.1h3.5zm-4.8 8.8l5 9.1v.1l-.1.1h-3.8s-.1 0-.1-.1l-2.9-5.4-.3-.7-.3.6-3 5.4s-.1 0-.1.1H9.1s-.1 0-.1-.1v-.1l5.3-8.9-3.6-6.5L9 11.2v-.1l.1-.1h4c.1 0 .2.1.3.2.7 1.4 2.6 4.9 2.6 4.9l2.3 3.8zM32 11.2c0-.1-.1-.1-.1-.1h-4v.1l.4 2.7V29c0 .1.1.1.1.1h3.8V29l-.3-2.3V11.2h.1zm12.6 7.1c-1.6-.8-2.9-1.6-2.9-2.8 0-1.1 1.1-1.9 2-1.9 2.5 0 4.2 1.4 4.2 1.4h.1l.1-.1.7-2.7c0-.1 0-.1-.1-.1-.6-.4-2.4-1.4-5-1.4-3.2 0-5.5 2.3-5.5 5.4 0 3 2.4 4.4 4.5 5.6 1.6.9 2.9 1.6 2.9 2.9 0 1.2-1 2.1-2.3 2.1-2.7 0-4.8-2.2-4.8-2.2s-.1-.1-.1 0c-.1 0-.1.1-.1.1l-.3 3v.1c.1.1 2 1.9 5.4 1.9 3.3 0 5.6-2.3 5.6-5.5.2-3.3-2.3-4.7-4.4-5.8zM67.8 24h-.1c-1.4 1.5-3.4 2.5-5.2 2.5-2.6 0-5.3-2-5.3-6.3 0-3.6 2.3-6.6 5.1-6.6 1.6 0 3.2.7 4.5 2.1h.1s.1 0 .1-.1l1.4-2.6v-.2c-1.7-1.5-3.7-2.3-6.1-2.3-5 0-8.9 4.2-8.9 9.8 0 6.2 4.5 9 8.6 9 2.3 0 4.9-1 6.5-2.5 0 0 .1-.1 0-.1l-.6-2.7c0 .1 0 0-.1 0zm21.4-12.8c0-.1-.1-.1-.1-.1h-3.9v.1l.4 2.7v4.5h-7.9v-7.3c0-.1-.1-.1-.1-.1h-3.9v.1l.4 2.7V29c0 .1.1.1.1.1H78V29l-.3-2.3v-5.1h7.9V29c0 .1.1.1.1.1h3.8V29l-.3-2.3V11.2zm17.6 15.1h-6.5v-4.9h4.7c.1 0 .1 0 .1-.1l.7-2.7v-.1l-.1-.1h-5.4V14h6.1c.1 0 .1-.1.1-.1v-2.6c0-.1-.1-.1-.1-.1H96.2v.1l.4 2.7v15c0 .1.1.1.1.1h9.4c.1 0 .1 0 .1-.1l.7-2.6v-.1h-.1zm-5.4-15.9c.1.1.1.1 0 0h.1l4.8-4.4s.1-.1 0-.1-.1-.1-.1-.1h-4l-3 3.6v.1s0 .1.1.1l2.1.8z" fill="#242D30"/><path fill="#FFF" d="M19 47h193.5v45.4H19z"/><path d="M43.1 81.5c-.8-.6-1.1-1.6-1.4-2.6l-.9-3.4c-.5-1.8-1.2-2.1-2.9-2.1h-2.1v8.1h-6.1V57.4h9.9c5.4 0 9 1.8 9 7.5 0 3.7-2.1 5.7-5.2 6.1v.1c2.2.4 3.4 1.3 3.9 3.4l1.2 4.4c.3 1 .6 1.8 1.4 2.6h-6.8zm-7.2-13.2h3.3c2 0 3.2-.7 3.2-2.8 0-1.9-1.1-2.9-3.1-2.9H36v5.7h-.1zm37.8 13.2H57.1V57.4h16.6v5.3H63.2v4h9.2v5.1h-9.2v4.3h10.5zm8.1 0V57.4h9.1c6.3 0 8.9 2.9 8.9 8.4 0 5.2-3.1 8.3-8.3 8.3H88v7.4h-6.2zM88 69h2.7c2.1 0 3-1 3-3.1 0-2.4-.9-3.4-3-3.4H88V69zm18.6.4c0-8.1 4.3-12.6 11.6-12.6s11.6 4.5 11.6 12.6-4.3 12.5-11.6 12.5-11.6-4.4-11.6-12.5zm6.4.1c0 4.4 1.7 7.1 5.2 7.1s5.2-2.7 5.2-7.1c0-4.4-1.7-7.2-5.2-7.2s-5.2 2.8-5.2 7.2zm38 12c-.8-.6-1.1-1.6-1.4-2.6l-.9-3.4c-.5-1.8-1.2-2.1-2.9-2.1h-2.1v8.1h-6.1V57.4h9.9c5.4 0 9 1.8 9 7.5 0 3.7-2.1 5.7-5.2 6.1v.1c2.2.4 3.4 1.3 3.9 3.4l1.2 4.4c.3 1 .6 1.8 1.4 2.6H151zm-7.2-13.2h3.3c2 0 3.2-.7 3.2-2.8 0-1.9-1.1-2.9-3.1-2.9h-3.3v5.7h-.1zm25.3 13.2V62.7h-6.4v-5.3h19.1v5.3h-6.6v18.8zm22.5-8c.5 2.2 2.2 3.7 4.3 3.7 1.6 0 2.8-.6 2.8-2s-.8-2-3.7-2.9c-6.1-1.9-8.1-4.2-8.1-8.2 0-5.6 4.4-7.4 8.8-7.4 5.1 0 8.9 1.6 9.5 6.2l-6.1 1.6c-.2-2-1.7-2.7-3.2-2.7-1.3 0-2.4.5-2.4 1.8 0 1.4 1.1 2 3.8 2.8 5.5 1.7 7.9 3.4 7.9 8.1 0 5.4-4.4 7.3-9.7 7.3-4.7 0-8-1.5-9.4-5.8l5.5-2.5z" fill="#000"/></g></svg>