<svg width="224" height="102" viewBox="0 0 224 102" xmlns="http://www.w3.org/2000/svg"><title>Group 2</title><path d="M12.2 5.8s0 .1 0 0c.1.1.1.1.1.2l-2.2 3.8c-.1.1-.2.1-.2 0L8.7 7.5v-.3l.7-1.3c0-.1.1-.1.2-.1h2.6zm-3.8 7.1l4 7.2v.1l-.1.1h-3s-.1 0-.1-.1l-2.3-4.3-.2-.5-.2.5-2.4 4.4-.1.1H1.1s-.1 0-.1-.1v-.1l4.2-7.1-2.8-5.2-1.3-1.8V6l.1-.1h3.3s.1 0 .1.1l2.1 4 1.7 2.9zM19.2 6c0-.1 0-.1-.1-.1H16V6l.3 2.2v12.1c0 .1 0 .1.1.1h3v-.1l-.2-1.8V6zm10 5.6c-1.2-.7-2.3-1.3-2.3-2.3 0-.9.8-1.5 1.6-1.5 2 0 3.3 1.1 3.3 1.2h.1s.1 0 .1-.1l.5-2.1v-.1c-.5-.3-1.9-1.1-3.9-1.1-2.5 0-4.3 1.8-4.3 4.3 0 2.4 1.9 3.5 3.6 4.5 1.2.7 2.3 1.3 2.3 2.3 0 .9-.8 1.7-1.8 1.7-2.1 0-3.8-1.7-3.8-1.7h-.1l-.1.1-.2 2.4v.1c.1.1 1.6 1.5 4.3 1.5 2.6 0 4.5-1.8 4.5-4.4-.1-2.8-2.2-3.9-3.8-4.8zm18.4 4.6h-.1c-1.1 1.2-2.7 2-4.1 2-2 0-4.2-1.6-4.2-5 0-2.9 1.8-5.3 4-5.3 1.3 0 2.5.6 3.6 1.7h.1s.1 0 .1-.1l1.1-2.1v-.1c-1.3-1.2-2.9-1.8-4.8-1.8-4 0-7 3.4-7 7.8 0 5 3.5 7.2 6.8 7.2 1.8 0 3.9-.8 5.2-2v-.1l-.7-2.2c.1.1 0 0 0 0zM64.5 6c0-.1 0-.1-.1-.1h-3.1V6l.3 2.2v3.6h-6.3V6c0-.1 0-.1-.1-.1h-3.1V6l.3 2.2v12.1c0 .1 0 .1.1.1h3v-.1l-.2-1.8v-4.1h6.3v5.9c0 .1 0 .1.1.1h3v-.1l-.2-1.8V6zm13.9 12h-5.1v-3.9h3.8s.1 0 .1-.1l.5-2.1v-.1h-4.4V8.2h4.9c.1 0 .1 0 .1-.1V6c0-.1 0-.1-.1-.1h-8.1V6l.3 2.2v12.1c0 .1 0 .1.1.1h7.4s.1 0 .1-.1l.5-2.1c0-.1 0-.1-.1-.2.1 0 0 0 0 0zM74.2 5.3c0 .1 0 .1 0 0h.1l3.8-3.5v-.1l-.1-.1h-3.1l-2.4 2.9v.1s0 .1.1.1l1.6.6zm29.6 14.1l-1.5 1.6-.1.1h-.1c-1.3-.5-2.9-1.4-4.5-2.7-1.4 1.6-3.5 2.5-5.8 2.5-3.3 0-5.5-2.1-5.5-5.3 0-2.4 1.7-4.1 3.5-5.6-1.4-2.1-2.1-4-2.1-5.2 0-2.8 1.9-4.6 5-4.6 2.7 0 4.4 1.5 4.4 3.9s-2.3 4.3-4.3 6c1.3 1.7 2.9 3.5 4.6 5.1.5-1.1 1-2.4 1-5.6V7.4l.1-.1h5.2c.1 0 .1 0 .1.1v.2l-.5 1.8c0 .1-.1.1-.2.1h-2.6v.8c0 2.5-.5 4.5-1.5 6.3 1.8 1.5 3.5 2.5 4.7 2.8.1 0 .1.1.1.1.1-.3.1-.2 0-.1zM89 14.8c0 1.8 1 3.7 3.7 3.7 1.2 0 2.4-.6 3.4-1.6-1.8-1.6-3.6-3.6-5-5.5-1.4 1.2-2.1 2.2-2.1 3.4zm5.7-10.5c0-.9-.7-2.2-2.3-2.2-1.3 0-2.2.9-2.2 2.2 0 1 .5 2.4 1.6 4 1.5-1.2 2.9-2.5 2.9-4zm26.6 11.9h-.1c-1.1 1.2-2.7 2-4.1 2-2 0-4.2-1.6-4.2-5 0-2.9 1.8-5.3 4-5.3 1.3 0 2.5.6 3.6 1.7h.1s.1 0 .1-.1l1.1-2.1v-.1c-1.3-1.2-2.9-1.8-4.8-1.8-4 0-7 3.4-7 7.8 0 5 3.5 7.2 6.8 7.2 1.8 0 3.9-.8 5.2-2v-.1l-.7-2.2c.1.1 0 0 0 0zM138 13c0 4.4-2.9 7.6-6.8 7.6s-6.5-3-6.5-7.4c0-4.3 2.9-7.6 6.8-7.6 4.1 0 6.5 2.8 6.5 7.4zm-3.1.1c0-3.1-1.5-5.2-3.6-5.2s-3.6 2.1-3.6 5.2 1.5 5.2 3.6 5.2c2.2 0 3.6-2.1 3.6-5.2zM5.2 57.3c.3 1.6 1.6 2.8 3.3 2.8 1.2 0 2.1-.5 2.1-1.5s-.6-1.5-2.8-2.2c-4.7-1.4-6.1-3.2-6.1-6.2 0-4.2 3.3-5.6 6.6-5.6 3.9 0 6.8 1.2 7.2 4.7l-4.7 1.2c-.2-1.5-1.3-2.1-2.4-2.1-1 0-1.8.4-1.8 1.4 0 1.1.8 1.5 2.9 2.1 4.2 1.3 6 2.6 6 6.1 0 4.1-3.3 5.5-7.3 5.5-3.6 0-6.1-1.1-7.1-4.4l4.1-1.8zm30.7 6V49.1H31v-4h14.4v4h-5v14.2zm34.5 0c-.6-.4-.8-1.2-1-2l-.7-2.6c-.3-1.4-.9-1.6-2.2-1.6H65v6.1h-4.7V44.9h7.5c4.1 0 6.8 1.4 6.8 5.7 0 2.8-1.5 4.3-3.9 4.6v.1c1.7.3 2.5 1 3 2.5l.9 3.3c.2.7.4 1.3 1.1 2h-5.3v.2zm-5.4-10h2.5c1.5 0 2.4-.5 2.4-2.1 0-1.4-.8-2.2-2.4-2.2H65v4.3zm36.7 6.6H95l-1.1 3.4H89L95.6 45h5.7l6.7 18.3h-5l-1.3-3.4zM96.3 56h4.1l-.5-1.4c-1.1-3-1.5-5.3-1.5-5.3h-.1s-.5 2.3-1.5 5.3l-.5 1.4zm28.2 7.3V49.1h-4.9v-4H134v4h-5v14.2zm36.8 0h-12.6V45h12.6v4h-7.9v3h7v3.9h-7v3.3h7.9zm32.4-9.8v9.9H191l-.8-2c-1 1.6-2.8 2.3-5 2.3-4.7 0-8.2-2.9-8.2-9.4 0-6.1 3.3-9.6 9.1-9.6 3.8 0 6.4 1.8 7.6 4.7l-4.5 2.2c-.5-1.9-1.6-2.8-3.2-2.8s-4.2 1-4.2 5.5c0 3 1.1 5.5 4.3 5.5 2.4 0 3.3-1.2 3.3-2.4V57h-3.6v-3.7h7.9v.2zm19.8-4.6c1.2 2.5 1.4 4.2 1.4 4.2h.1s.2-1.7 1.4-4.2l1.9-3.9h4.9l-5.9 12.5v5.8h-4.7v-5.8L206.3 45h5.3l1.9 3.9zM.9 101V82.7h6.9c4.7 0 6.7 2.2 6.7 6.4 0 4-2.4 6.3-6.3 6.3H5.6v5.6H.9zm4.7-9.4h2c1.6 0 2.3-.7 2.3-2.3 0-1.8-.7-2.6-2.3-2.6h-2v4.9zm37 9.4c-.6-.4-.8-1.2-1-2l-.7-2.6c-.3-1.4-.9-1.6-2.2-1.6h-1.6v6.1h-4.7V82.6h7.5c4.1 0 6.8 1.4 6.8 5.7 0 2.8-1.5 4.3-3.9 4.6v.1c1.7.3 2.5 1 3 2.5l.9 3.3c.2.7.4 1.3 1.1 2h-5.2v.2zm-5.4-10h2.5c1.5 0 2.4-.5 2.4-2.1 0-1.4-.8-2.2-2.4-2.2h-2.5V91zm36.7 6.6h-6.7L66 101h-4.9l6.6-18.3h5.7l6.7 18.3h-5l-1.2-3.4zm-5.4-3.9h4.1l-.5-1.4c-1.1-3-1.5-5.3-1.5-5.3h-.1s-.5 2.3-1.5 5.3l-.5 1.4zm41.9 3.4c-1.7 2.9-3.8 4.3-8 4.3-5 0-8.5-3.5-8.5-9.5 0-6.1 3.3-9.5 9.1-9.5 3.9 0 6.3 1.8 7.6 4.7l-4.5 2.2c-.5-1.7-1.3-2.8-3.2-2.8-2.6 0-4.2 2-4.2 5.5 0 3.3 1.4 5.3 4.3 5.3 1.5 0 2.8-.8 3.4-2.5l4 2.3zm18.3 3.9V86.8h-4.9v-4h14.4v4h-5V101zm29.1-18.3V101h-4.7V82.7zm32.7 14.4c-1.7 2.9-3.8 4.3-8 4.3-5 0-8.5-3.5-8.5-9.5 0-6.1 3.3-9.5 9.1-9.5 3.9 0 6.3 1.8 7.6 4.7l-4.5 2.2c-.5-1.7-1.3-2.8-3.2-2.8-2.6 0-4.2 2-4.2 5.5 0 3.3 1.4 5.3 4.3 5.3 1.5 0 2.8-.8 3.4-2.5l4 2.3zm27.7 3.9h-12.6V82.7h12.6v4h-7.9v3h7v3.9h-7v3.3h7.9z" fill="#FFF"/></svg>