<svg id="Layer_1" xmlns="http://www.w3.org/2000/svg" viewBox="0 0 153 90.7"><style>.st0{fill:#fff}</style><path class="st0" d="M82.7 11.6c.1.1.2.2.3.2.1 0 .3-.1.3-.2l6.5-11c.1-.1.1-.3 0-.4 0-.1-.2-.2-.3-.2L85 .6c-.1 0-.2 0-.2.1l-.2.3-4 6.6c-.1.1-.1.3 0 .4l2.1 3.6zm8.5 25.6c-1.1-1.9-6.7-11.2-9.5-15.6-.6-1-3.6-5.7-4.2-6.6C75.1 11.2 68.1.3 68 .2c0-.1-.1-.1-.2-.1h-.3l-4.3.7c-.1 0-.2.1-.3.2-.1.1 0 .2 0 .4l6 9.2 4.6 7.4-.2.3c-5.4 9-8.6 14.2-9.1 15.1-1.9 3.1-2.5 3.8-2.5 3.8-.1.1-.1.3-.1.4.1.1.2.2.3.2h4.7c.1 0 .2 0 .2-.1l.1-.1.1-.1 6.1-10.1 3.5-6 .8 2.2 4.7 7.8 3.5 6.1s0 .1.1.1l.1.1c.1.1.2.1.2.1h4.7c.1 0 .3-.1.3-.2.3-.2.3-.3.2-.4m-78.7 18s.1 0 .1.1v.1l-2.5 4.2c-.1.1-.2.1-.3 0L8.5 57c-.1-.1-.1-.2 0-.3l.8-1.4c0-.1.1-.1.2-.1h3zM8.2 63l4.4 8v.1l-.1.1H9.2s-.1 0-.1-.1l-2.5-4.8-.3-.6-.2.6-2.6 4.8-.1.1H.1s-.1 0-.1-.1V71l4.7-7.8-3.1-5.8-1.5-2v-.1l.1-.1h3.7s.1 0 .1.1l2.4 4.4m13.9-4.4c0-.1-.1-.1-.1-.1h-3.4v.1l.3 2.4v13.4c0 .1.1.1.1.1h3.4v-.1l-.3-2V55.3zm11.2 6.3c-1.4-.7-2.6-1.4-2.6-2.5 0-1 .9-1.7 1.8-1.7 2.2 0 3.7 1.3 3.7 1.3h.1s.1 0 .1-.1l.6-2.4s0-.1-.1-.1c-.6-.4-2.1-1.2-4.4-1.2-2.8 0-4.8 2-4.8 4.8 0 2.7 2.1 3.9 4 4.9 1.4.8 2.6 1.4 2.6 2.5 0 1-.9 1.8-2.1 1.8-2.4 0-4.2-1.9-4.3-1.9H26l-.1.1-.2 2.6v.1c.1.1 1.8 1.6 4.8 1.6 2.9 0 5-2 5-4.9.1-2.7-2.2-3.9-4-4.9M52 66.7h-.1c-1.3 1.4-3 2.2-4.6 2.2-2.3 0-4.7-1.7-4.7-5.6 0-3.2 2-5.8 4.5-5.8 1.5 0 2.8.6 4 1.9h.1s.1 0 .1-.1l1.2-2.3v-.1c-1.5-1.3-3.2-2-5.4-2-4.5 0-7.8 3.7-7.8 8.6 0 5.5 4 8 7.6 8 2.1 0 4.3-.9 5.8-2.2v-.1l-.7-2.5c.1 0 .1 0 0 0m18.9-11.4c0-.1-.1-.1-.1-.1h-3.4v.1l.3 2.4v4h-7v-6.4c0-.1-.1-.1-.1-.1h-3.4v.1l.3 2.4v13.4c0 .1.1.1.1.1H61v-.1l-.2-2v-4.5h7v6.6c0 .1.1.1.1.1h3.2v-.1l-.3-2V55.3zm15.6 13.4h-5.7v-4.3H85c.1 0 .1 0 .1-.1l.6-2.3v-.1h-4.9V58h5.4c.1 0 .1-.1.1-.1v-2.3c0-.1-.1-.1-.1-.1h-9v.1l.3 2.4v13.3c0 .1.1.1.1.1h8.3c.1 0 .1 0 .1-.1l.6-2.3c0-.2 0-.3-.1-.3m-4.7-14h.1l4.3-3.9v-.1l-.1-.1h-3.6l-2.7 3.2v.1s0 .1.1.1l1.9.7zm33.1 15.4l-1.7 1.8-.1.1h-.1c-1.4-.5-3.2-1.5-5-3-1.6 1.8-3.9 2.7-6.5 2.7-3.7 0-6.2-2.4-6.2-5.9 0-2.6 1.9-4.5 3.9-6.2-1.5-2.4-2.4-4.4-2.4-5.8 0-3.1 2.2-5.1 5.6-5.1 3 0 5 1.7 5 4.3 0 2.7-2.6 4.8-4.9 6.6a38 38 0 0 0 5.1 5.6c.6-1.2 1.1-2.6 1.1-6.2v-2.4c0-.1 0-.1.1-.1l.1-.1h5.8c.1 0 .1 0 .2.1v.2l-.6 2c0 .1-.1.1-.2.1h-2.9v.9c0 2.7-.6 5-1.7 6.9 2.1 1.7 3.9 2.7 5.2 3.1.1 0 .1.1.1.1.1.2.1.3.1.3m-16.7-4.9c0 2 1.1 4.1 4.2 4.1 1.3 0 2.7-.7 3.8-1.8-2-1.8-4-4-5.6-6.1-1.5 1.3-2.4 2.3-2.4 3.8m6.5-11.7c0-1-.8-2.5-2.5-2.5-1.5 0-2.5 1-2.5 2.4 0 1.1.6 2.6 1.7 4.5 1.7-1.3 3.3-2.7 3.3-4.4m29.6 13.2h-.1c-1.3 1.4-3 2.2-4.6 2.2-2.3 0-4.7-1.7-4.7-5.6 0-3.2 2-5.8 4.5-5.8 1.5 0 2.8.6 4 1.9h.1s.1 0 .1-.1l1.2-2.3v-.1c-1.5-1.3-3.3-2-5.4-2-4.5 0-7.8 3.7-7.8 8.6 0 5.5 4 8 7.6 8 2.1 0 4.3-.9 5.8-2.2v-.1l-.7-2.5c.1 0 .1 0 0 0m18.7-3.6c0 4.8-3.3 8.4-7.6 8.4s-7.2-3.3-7.2-8.2c0-4.8 3.2-8.4 7.6-8.4 4.5.1 7.2 3.1 7.2 8.2m-3.4.1c0-3.4-1.6-5.8-4-5.8s-4 2.4-4 5.8 1.6 5.8 4 5.8c2.3 0 4-2.4 4-5.8M24.2 88.8c1.3 0 2.3-.7 2.3-1.9s-1.1-1.6-2.1-1.9c-.9-.3-1.7-.5-1.7-1.1 0-.5.5-.9 1.3-.9.6 0 1.3.2 1.9.6l.4-.7c-.7-.4-1.6-.7-2.3-.7-1.3 0-2.2.7-2.2 1.9s1.1 1.5 2.2 1.8c.9.2 1.6.5 1.6 1.1 0 .6-.6 1-1.3 1-.8 0-1.6-.3-2.3-.8l-.5.7c.8.6 1.8.9 2.7.9m5.7 0c.5 0 .8-.1 1.2-.3v-.8c-.3.2-.6.2-.9.2-.7 0-1.1-.3-1.1-1.1V83h2.1v-.9H29v-2h-1v2h-.9v.9h.9v4c.1 1.3.9 1.8 1.9 1.8m2.4-.1h1v-2.6c0-2 1.2-3 2.6-3h.1v-1c-1.2-.1-2.2.7-2.7 1.8v-1.7h-1v6.5zm6.3.1c1.1 0 1.9-.5 2.4-1.1v1h.9v-4c0-.8-.2-1.5-.7-1.9-.5-.5-1.2-.7-2.1-.7-.9 0-1.7.2-2.4.5l.3.8c.6-.3 1.2-.5 2-.5 1.2 0 1.9.6 1.9 1.8v.3c-.6-.2-1.2-.3-2-.3-1.7 0-2.8.7-2.8 2.1 0 1.3 1.2 2 2.5 2m.1-.7c-.9 0-1.6-.5-1.6-1.3s.7-1.3 1.9-1.3c.8 0 1.4.1 1.9.3v.6c0 .9-1 1.7-2.2 1.7m6.8.7c.5 0 .8-.1 1.2-.3v-.8c-.3.2-.6.2-.9.2-.7 0-1.1-.3-1.1-1.1V83h2.1v-.9h-2.1v-2h-1v2h-.9v.9h.9v4c0 1.3.8 1.8 1.8 1.8m5.1.1c1.2 0 2-.5 2.7-1.2l-.6-.5c-.5.6-1.2.9-2.1.9-1.2 0-2.2-.8-2.3-2.2h5.2v-.3c0-1.9-1.1-3.4-3-3.4-1.8 0-3.1 1.5-3.1 3.4s1.4 3.3 3.2 3.3m-2.3-3.8c.1-1.3 1-2.2 2.1-2.2 1.3 0 2 1 2.1 2.2h-4.2zm9.3 5.6c1 0 1.9-.3 2.5-.9.5-.5.8-1.3.8-2.3v-5.4h-1v1.2c-.5-.7-1.3-1.3-2.5-1.3-1.6 0-3.1 1.2-3.1 3.1 0 1.9 1.5 3 3.1 3 1.2 0 2-.6 2.6-1.4v.8c0 1.5-.9 2.3-2.4 2.3-.9 0-1.8-.3-2.5-.8l-.4.8c.8.6 1.8.9 2.9.9m0-3.4c-1.2 0-2.3-.9-2.3-2.2 0-1.3 1-2.2 2.3-2.2 1.2 0 2.4.9 2.4 2.2 0 1.3-1.2 2.2-2.4 2.2m7.8.3L63 82.2h-1l3 6.5c-.4.9-.8 1.2-1.3 1.2-.4 0-.7-.1-1-.2l-.3.8c.4.2.8.3 1.4.3 1 0 1.6-.5 2.2-1.8l2.7-6.7h-1l-2.3 5.3zm10 1.2c1.6 0 3.1-1.3 3.1-3.4 0-2.1-1.5-3.4-3.1-3.4-1.2 0-2 .7-2.5 1.4v-4h-1v9.2h1v-1.2c.5.8 1.3 1.4 2.5 1.4m-.2-.8c-1.2 0-2.4-1-2.4-2.5s1.1-2.5 2.4-2.5c1.2 0 2.3 1 2.3 2.5s-1 2.5-2.3 2.5m7.1-.4l-2.4-5.4h-1.1l3 6.5c-.4.9-.8 1.2-1.3 1.2-.4 0-.7-.1-1-.2l-.3.8c.4.2.8.3 1.4.3 1 0 1.6-.5 2.2-1.8l2.7-6.7h-1l-2.2 5.3zm9.2 1.2c1.2 0 2-.7 2.5-1.4v1.3h1v-9.2h-1v3.9c-.5-.7-1.3-1.4-2.5-1.4-1.6 0-3.1 1.3-3.1 3.4 0 2.2 1.6 3.4 3.1 3.4m.2-.8c-1.2 0-2.3-1-2.3-2.5 0-1.6 1-2.5 2.3-2.5 1.2 0 2.4 1 2.4 2.5C94 87 92.9 88 91.7 88m7.8.9c1.2 0 2-.5 2.7-1.2l-.6-.5c-.5.6-1.2.9-2.1.9-1.2 0-2.2-.8-2.3-2.2h5.2v-.3c0-1.9-1.1-3.4-3-3.4-1.8 0-3.1 1.5-3.1 3.4s1.4 3.3 3.2 3.3m-2.3-3.8c.1-1.3 1-2.2 2.1-2.2 1.3 0 2 1 2.1 2.2h-4.2zm8.6 3.7c1.3 0 2.3-.7 2.3-1.9S107 85.3 106 85c-.9-.3-1.7-.5-1.7-1.1 0-.5.5-.9 1.3-.9.6 0 1.3.2 1.9.6l.4-.7c-.7-.4-1.6-.7-2.3-.7-1.3 0-2.2.7-2.2 1.9s1.1 1.5 2.2 1.8c.9.2 1.6.5 1.6 1.1 0 .6-.6 1-1.3 1-.8 0-1.6-.3-2.3-.8l-.5.7c.7.6 1.7.9 2.7.9m3.6-8h1.1v-1.1h-1.1v1.1zm.1 7.9h1v-6.5h-1v6.5zm5.6 2c1 0 1.9-.3 2.5-.9.5-.5.8-1.3.8-2.3v-5.4h-1v1.2c-.5-.7-1.3-1.3-2.5-1.3-1.6 0-3.1 1.2-3.1 3.1 0 1.9 1.5 3 3.1 3 1.2 0 2-.6 2.6-1.4v.8c0 1.5-.9 2.3-2.4 2.3-.9 0-1.8-.3-2.5-.8l-.4.8c.8.6 1.8.9 2.9.9m0-3.4c-1.2 0-2.3-.9-2.3-2.2 0-1.3 1-2.2 2.3-2.2s2.4.9 2.4 2.2c0 1.3-1.2 2.2-2.4 2.2m5 1.4h1V85c0-1.2.8-2 2-2 1.1 0 1.8.8 1.8 2v3.8h1v-4c0-1.5-.9-2.6-2.5-2.6-1.1 0-1.8.6-2.2 1.3v-1.1h-1v6.3zm6.6-6.4v.3h.6v1.5h.4v-1.5h.6v-.3h-1.6zm4 1.8l-.1-1.8h-.6l-.3.9c0 .1-.1.3-.1.5 0-.2-.1-.3-.1-.5l-.3-.9h-.5l-.1 1.8h.4l.1-1.1v-.5c0 .2.1.4.1.5l.3 1h.4l.3-1c0-.2.1-.4.2-.5v.5l.1 1.1h.2z"/></svg>