<svg id="Layer_1" xmlns="http://www.w3.org/2000/svg" xmlns:xlink="http://www.w3.org/1999/xlink" viewBox="0 0 243 81"><style>.st0{clip-path:url(#SVGID_2_);fill:#fff}</style><defs><path id="SVGID_1_" d="M0 0h243v81H0z"/></defs><clipPath id="SVGID_2_"><use xlink:href="#SVGID_1_" overflow="visible"/></clipPath><path class="st0" d="M68.4 58.6c-1.9 6.3-6.2 9.7-13.5 9.7-7.6 0-12.6-4.5-12.6-12.6 0-9.5 5.3-18.5 16.3-18.5 7.7 0 10.9 4.5 10.9 10.5L61.9 49c.1-2.8-.9-5.6-4.1-5.6-4.6 0-7.4 5.8-7.4 11.8 0 4.9 2 7.2 5.2 7.2 2.9 0 4.6-1.8 5.4-5l7.4 1.2zm85.1-.5l7.2 1.7c-1.9 6-6.1 8.4-13.4 8.4-8 0-12.6-5-12.6-12.7 0-11.8 7.7-18.3 15.7-18.3 8.2 0 11.8 5.2 11.8 10.7 0 2.2-.5 4.4-1.3 6.2h-18.2c-.6 4.4 1.1 8.3 5.3 8.3 3.1 0 4.7-1.3 5.5-4.3m.7-8.5c.1-.5.2-1.1.2-1.7 0-2.7-1.2-4.9-4.4-4.9-3.5 0-5.6 3.1-6.5 6.7h10.7zM13.6 4.9s.1 0 .1.1v.1L11 9.5c-.1.1-.2.1-.3 0L9.2 6.9c-.1-.1-.1-.2 0-.3l.9-1.5c0-.1.1-.1.2-.1l3.3-.1zm-4.7 8.3l4.8 8.5v.1l-.1.1H10s-.1 0-.1-.1l-2.8-5.1-.3-.6-.2.6-2.9 5.1-.1.1H.1s-.1 0-.1-.1v-.1l5.1-8.3-3.4-6.1L.1 5.1V5l.1-.1h4s.1 0 .1.1l2.6 4.7m15.2-4.6c0-.1-.1-.1-.1-.1h-3.7v.1l.4 2.6v14.1c0 .1.1.1.1.1h3.7v-.1l-.3-2.1V5.1zm12.1 6.6c-1.5-.8-2.8-1.5-2.8-2.6 0-1 1-1.8 1.9-1.8 2.4 0 4 1.3 4.1 1.3h.1s.1 0 .1-.1l.6-2.5c0-.1 0-.1-.1-.1-.6-.4-2.3-1.3-4.8-1.3-3.1 0-5.3 2.1-5.3 5.1 0 2.9 2.3 4.1 4.4 5.2 1.5.8 2.8 1.5 2.8 2.7 0 1.1-1 1.9-2.2 1.9-2.6 0-4.6-2-4.6-2h-.1l-.1.1-.2 2.8v.1c.1.1 1.9 1.7 5.2 1.7 3.2 0 5.4-2.1 5.4-5.2.1-3-2.4-4.3-4.4-5.3m22.4 5.4h-.1c-1.4 1.4-3.2 2.3-5 2.3-2.5 0-5.1-1.8-5.1-5.9 0-3.4 2.2-6.1 4.9-6.1 1.6 0 3 .7 4.3 2h.1s.1 0 .1-.1L57 6.9v-.2c-1.6-1.4-3.5-2.1-5.9-2.1-4.9 0-8.5 3.9-8.5 9.1 0 5.8 4.3 8.5 8.3 8.5 2.2 0 4.7-.9 6.3-2.4v-.1l-.6-2.6m20.5-12c0-.1-.1-.2-.1-.2h-3.7V5l.4 2.6v4.2h-7.6V5.1c0-.1-.1-.1-.1-.1h-3.7v.1l.4 2.6v14.1c0 .1.1.1.1.1h3.7v-.1l-.3-2.1v-4.8h7.6v6.9c0 .1.1.1.1.1h3.7v-.1l-.3-2.1V5.1zM94 19.2h-6.2v-4.6h4.6c.1 0 .1 0 .1-.1l.6-2.5v-.1h-5.3V7.7h5.9c.1 0 .1-.1.1-.1V5.1c0-.1-.1-.1-.1-.1h-9.8v.1l.4 2.6v14.1c0 .1.1.1.1.1h9c.1 0 .1 0 .1-.1l.6-2.5v-.1H94M88.9 4.3c0 .1 0 .1 0 0h.1L93.7.2s.1-.1 0-.1l-.1-.1h-3.9l-2.9 3.4v.1s0 .1.1.1l2 .7zM35.2 58.9l3.7-21h-6.8l-1.8 4.9c-.5-4-3.2-5.6-7.4-5.6-8.8 0-14.2 8.8-14.2 19 0 7.6 3.7 12.1 9.9 12.1 1.7 0 3.2-.3 4.6-1l.7-5.4c-.7.3-1.5.5-2.4.5-3.3 0-4.9-2.9-4.9-6.7 0-6.7 3.1-12.6 8.2-12.6 3.7 0 4.8 3.6 4.1 7.2l-.7 3.9-1.2 8.5c0-.1 0-.1.1-.2.2 3.7 2.3 5.3 6.3 5.3 1.4 0 3-.3 4.2-.7l1.2-5.8c-.8.2-1.4.3-1.9.3-1.8.1-1.9-1.2-1.7-2.7m83.7-21.6h-10l-5.3 30.2h6.8l2.4-12.1 2.2-12.2h2.7c4.5 0 7.3 1.9 7.3 6.7 0 7.3-3.8 11.2-9 11.7l-1.2 5.9c9.5-.2 17.5-5.3 17.5-18.3 0-7.9-4.5-11.9-13.4-11.9m57.1 6.2l.1-5.6h-6.8l-5.2 29.6h7.7zm32.7 18.2c-1.9 0-2-1.3-1.7-2.8l2-11.7c.2-1 .2-1.8.2-2.7 0-4.5-2.8-7.3-7.4-7.3-4.8 0-7.7 2.4-9.4 7.1 0-4.6-2.8-7.1-7.3-7.1-2 0-3.6.4-4.9 1.2l-.9 5.5c.6-.2 1.1-.3 1.8-.3 3 0 3.7 2.2 3.2 5.3L181 67.6h7.9l2.7-15.9c1-5.9 3.5-8.1 6.3-8.1 3 0 3.7 2.2 3.2 5.3l-2 11.3c-.8 5 1.1 7.7 6.2 7.7 1.4 0 3-.3 4.2-.7l1.2-5.8c-.9.1-1.4.3-2 .3m9.1 1c1.9-3 3.5-6.2 5.1-9.4L221.4 38h-8l4 25.4c.2-.3.3-.5.4-.7"/><path class="st0" d="M235.5 37.9c-2.3 4.2-4.4 8.4-6.5 12.7-.3.7-.7 1.4-1 2.2-2 4.1-4 8.3-6.5 12.2-1.1 1.7-2.3 3.4-3.6 5-1.9 3.3-3.8 4.8-6.5 4.8-1.4 0-2.6-.5-3.7-1.2l-2.1 6.1c1.2.6 3.2 1.2 5.5 1.2 5.1 0 9.1-1.5 14-10.4L243 37.9h-7.5zm-138.2 21l3.7-21h-6.8l-1.8 4.9c-.5-4-3.2-5.6-7.4-5.6-8.8 0-14.2 8.8-14.2 19 0 7.6 3.7 12.1 9.9 12.1 1.7 0 3.3-.3 4.6-1.1l.7-5.4c-.7.3-1.5.5-2.4.5-3.3 0-4.9-2.9-4.9-6.7 0-6.7 3.1-12.6 8.2-12.6 3.7 0 4.8 3.6 4.1 7.2l-.7 3.5-1.2 8.9v-.1c.2 3.7 2.3 5.3 6.3 5.3 1.4 0 3-.3 4.2-.7l1.2-5.8c-.8.2-1.4.3-1.9.3-1.7.1-1.9-1.2-1.6-2.7"/></svg>